<svg width="22" height="22" viewBox="0 0 22 22" fill="none" xmlns="http://www.w3.org/2000/svg">
<path d="M1 18C1 19.7 2.3 21 4 21H18C19.7 21 21 19.7 21 18V10H1V18ZM18 3H16V2C16 1.4 15.6 1 15 1C14.4 1 14 1.4 14 2V3H8V2C8 1.4 7.6 1 7 1C6.4 1 6 1.4 6 2V3H4C2.3 3 1 4.3 1 6V8H21V6C21 4.3 19.7 3 18 3Z" fill="#A7B3F1" stroke="black"/>
<circle cx="5.5" cy="14" r="1.5" fill="white" stroke="black"/>
<circle cx="11.5" cy="14" r="1.5" fill="white" stroke="black"/>
<circle cx="17.5" cy="14" r="1.5" fill="white" stroke="black"/>
</svg>
