<svg width="24" height="24" viewBox="0 0 24 24" fill="none" xmlns="http://www.w3.org/2000/svg">
<path fill-rule="evenodd" clip-rule="evenodd" d="M9.7 0.5C7.0596 0.5 5.11738 0.587911 3.79156 0.682467C2.10489 0.803089 0.803089 2.10438 0.682467 3.79207C0.587911 5.11738 0.5 7.0596 0.5 9.7C0.5 12.3404 0.587911 14.2826 0.682467 15.6084C0.800022 17.2512 2.03691 18.5284 3.65969 18.7058C3.59501 17.2381 3.56399 15.7691 3.56667 14.3C3.56667 11.6254 3.6556 9.64684 3.75322 8.28269C3.92802 5.83447 5.83447 3.92802 8.28269 3.75322C9.64684 3.65611 11.6254 3.56667 14.3 3.56667C16.0633 3.56667 17.5236 3.60551 18.7058 3.65969C18.5284 2.03691 17.2512 0.800022 15.6084 0.682467C14.2826 0.587911 12.3404 0.5 9.7 0.5ZM14.3 5.1C11.6596 5.1 9.71738 5.18791 8.39156 5.28247C6.70489 5.40309 5.40309 6.70438 5.28247 8.39207C5.18791 9.71738 5.1 11.6596 5.1 14.3C5.1 16.9404 5.18791 18.8826 5.28247 20.2084C5.40309 21.8951 6.70438 23.1969 8.39207 23.3175C9.71738 23.4121 11.6596 23.5 14.3 23.5C16.9404 23.5 18.8826 23.4121 20.2084 23.3175C21.8951 23.1969 23.1969 21.8956 23.3175 20.2079C23.4121 18.8826 23.5 16.9404 23.5 14.3C23.5 11.6596 23.4121 9.71738 23.3175 8.39156C23.1969 6.70489 21.8956 5.40309 20.2079 5.28247C18.8826 5.18791 16.9404 5.1 14.3 5.1ZM16.3444 10.2111C16.3444 9.66889 16.5598 9.14888 16.9432 8.76547C17.3267 8.38206 17.8467 8.16667 18.3889 8.16667C18.9311 8.16667 19.4511 8.38206 19.8345 8.76547C20.2179 9.14888 20.4333 9.66889 20.4333 10.2111C20.4333 10.7533 20.2179 11.2733 19.8345 11.6568C19.4511 12.0402 18.9311 12.2556 18.3889 12.2556C17.8467 12.2556 17.3267 12.0402 16.9432 11.6568C16.5598 11.2733 16.3444 10.7533 16.3444 10.2111ZM21.9242 17.3104C21.3807 16.8139 20.8246 16.3313 20.2565 15.863C19.4934 15.2384 18.4691 15.1398 17.6314 15.6984C17.0876 16.0613 16.3577 16.6005 15.4188 17.3958C13.9923 16.0378 12.9962 15.1704 12.3317 14.6266C11.5681 14.0025 10.5438 13.9034 9.70613 14.462C9.01204 14.9251 8.01282 15.6769 6.664 16.8826C6.69773 18.2177 6.75396 19.2828 6.81222 20.0991C6.87867 21.0257 7.5748 21.7218 8.50144 21.7878C9.78791 21.8798 11.6933 21.9667 14.3 21.9667C16.9067 21.9667 18.8121 21.8798 20.0991 21.7878C21.0257 21.7213 21.7218 21.0257 21.7878 20.0991C21.8399 19.3718 21.89 18.4472 21.9242 17.3104Z" fill="#9D897B"/>
</svg>
