<svg width="33" height="31" viewBox="0 0 33 31" fill="none" xmlns="http://www.w3.org/2000/svg">
<path d="M5.63297 19.6885H26.6919L30.9037 30.0004H1L5.63297 19.6885Z" fill="#7786D6"/>
<path d="M16.212 24.1743C16.212 24.1743 7.33838 16.9323 7.33838 9.69035C7.33838 4.74119 11.3108 1 16.212 1C21.1132 1 25.0857 4.74119 25.0857 9.69035C25.0857 16.9323 16.212 24.1743 16.212 24.1743Z" fill="#7786D6"/>
<path d="M20.6471 19.8291H26.5629L30.9997 29.9678H1.4209L5.85772 19.8291H8.8156H11.7735M17.6893 9.69035C17.6893 10.0745 17.5334 10.4429 17.2561 10.7145C16.9787 10.9861 16.6025 11.1387 16.2103 11.1387C15.8181 11.1387 15.4419 10.9861 15.1645 10.7145C14.8872 10.4429 14.7314 10.0745 14.7314 9.69035C14.7314 9.30621 14.8872 8.9378 15.1645 8.66618C15.4419 8.39455 15.8181 8.24195 16.2103 8.24195C16.6025 8.24195 16.9787 8.39455 17.2561 8.66618C17.5334 8.9378 17.6893 9.30621 17.6893 9.69035ZM7.33666 9.69035C7.33666 16.9323 16.2103 24.1743 16.2103 24.1743C16.2103 24.1743 25.084 16.9323 25.084 9.69035C25.084 4.74119 21.1115 1 16.2103 1C11.3091 1 7.33666 4.74119 7.33666 9.69035Z" stroke="black" stroke-width="1.5"/>
</svg>
