<svg width="28" height="28" viewBox="0 0 28 28" fill="none" xmlns="http://www.w3.org/2000/svg">
<path d="M16.5827 10.0999V4.89997C16.5827 4.38782 16.4819 3.88068 16.2862 3.40752C16.0904 2.93435 15.8034 2.50442 15.4417 2.14227C15.08 1.78013 14.6505 1.49286 14.1779 1.29687C13.7053 1.10088 13.1987 1 12.6872 1L7.49316 12.6999V26.9998H22.5818C23.2081 27.0069 23.8158 26.7871 24.2931 26.381C24.7703 25.9749 25.0849 25.4098 25.1788 24.7898L26.9707 13.0899C27.0272 12.7173 27.0021 12.3368 26.8971 11.9748C26.7922 11.6129 26.6099 11.2781 26.3628 10.9937C26.1158 10.7093 25.8099 10.482 25.4665 10.3277C25.123 10.1734 24.7502 10.0957 24.3737 10.0999H16.5827Z" fill="#F0E8E2" stroke="#262626" stroke-width="1.5" stroke-linejoin="round"/>
<path d="M7.49252 12.5551H4.02551C2.5041 12.5284 1.20415 13.7901 1 15.2995V24.3995C1.09882 25.1285 1.46145 25.796 2.01911 26.2752C2.57677 26.7544 3.29069 27.0121 4.02551 26.9994H7.49252V12.5551Z" fill="#F0E8E2" stroke="#262626" stroke-width="1.5" stroke-linejoin="round"/>
</svg>
