<svg width="28" height="28" viewBox="0 0 28 28" fill="none" xmlns="http://www.w3.org/2000/svg">
<path d="M16.5822 10.0999V4.89997C16.5822 4.38782 16.4814 3.88068 16.2857 3.40752C16.0899 2.93435 15.803 2.50442 15.4412 2.14227C15.0795 1.78013 14.6501 1.49286 14.1774 1.29687C13.7048 1.10088 13.1983 1 12.6867 1L7.49268 12.6999V26.9998H22.5813C23.2076 27.0069 23.8153 26.7871 24.2926 26.381C24.7698 25.9749 25.0844 25.4098 25.1783 24.7898L26.9702 13.0899C27.0267 12.7173 27.0016 12.3368 26.8966 11.9748C26.7917 11.6129 26.6094 11.2781 26.3623 10.9937C26.1153 10.7093 25.8095 10.482 25.466 10.3277C25.1225 10.1734 24.7497 10.0957 24.3732 10.0999H16.5822Z" fill="#A7B3F1" stroke="black" stroke-width="1.5" stroke-linejoin="round"/>
<path d="M7.493 12.5551H4.026C2.50459 12.5284 1.20464 13.7901 1.00049 15.2995V24.3995C1.09931 25.1285 1.46193 25.796 2.01959 26.2752C2.57726 26.7544 3.29118 27.0121 4.026 26.9994H7.493V12.5551Z" fill="#A7B3F1" stroke="black" stroke-width="1.5" stroke-linejoin="round"/>
</svg>
