<svg width="22" height="28" viewBox="0 0 22 28" fill="none" xmlns="http://www.w3.org/2000/svg">
<path d="M10.5822 10.0999V4.89997C10.5822 4.38782 10.4814 3.88068 10.2857 3.40752C10.0899 2.93435 9.80296 2.50442 9.44123 2.14227C9.0795 1.78013 8.65006 1.49286 8.17743 1.29687C7.70481 1.10088 7.19825 1 6.68669 1L1.49268 12.6999V26.9998H16.5813C17.2076 27.0069 17.8153 26.7871 18.2926 26.381C18.7698 25.9749 19.0844 25.4098 19.1783 24.7898L20.9702 13.0899C21.0267 12.7173 21.0016 12.3368 20.8966 11.9748C20.7917 11.6129 20.6094 11.2781 20.3623 10.9937C20.1153 10.7093 19.8095 10.482 19.466 10.3277C19.1225 10.1734 18.7497 10.0957 18.3732 10.0999H10.5822Z" fill="#EAEAFA"/>
<path d="M11.3751 3.5463C11.3567 3.48606 11.284 3.24295 11.2417 3.1414C11.3192 3.24587 11.4472 3.76307 11.3751 3.5463ZM5.95936 5.01461C5.98281 4.94545 6.00626 4.87628 6.02971 4.80712C5.94191 4.99427 5.83363 5.25017 5.75005 5.42292C5.73636 5.45115 5.75183 5.36898 5.72093 5.43647C5.69002 5.50399 5.71982 5.50155 5.67857 5.60138C5.63223 5.71333 5.39049 6.21282 5.31296 6.38854C5.02311 7.04582 4.74283 7.71411 4.44082 8.36756C4.72458 7.6805 4.40269 8.35688 4.32593 8.55053C4.309 8.59347 4.35658 8.60654 4.04284 9.28298C3.84347 9.71287 3.95728 9.28459 3.66842 10.0214C3.9597 9.48552 3.71399 10.0306 3.5221 10.4668C3.48902 10.542 3.21309 11.1455 3.09613 11.4143C3.05613 11.5063 3.01749 11.6563 2.96413 11.7781C2.92739 11.862 2.88653 11.9196 2.83202 12.0441C2.6783 12.3951 2.52545 12.7422 2.37073 13.0897L2.45336 12.6999C2.45308 12.9486 2.45212 13.1978 2.45025 13.4488C2.38458 13.0778 2.42226 13.74 2.41912 13.7697C2.40129 13.921 2.39622 13.237 2.38506 13.5075C2.3871 13.8855 2.38913 14.2635 2.39117 14.6416C2.39923 14.3313 2.44647 15.0523 2.42498 15.185C2.48301 15.1266 2.37447 16.908 2.39385 17.1792C2.39795 17.2356 2.42663 16.8659 2.41351 17.7236C2.41205 17.8164 2.39454 17.7813 2.39617 17.83C2.39715 17.8592 2.4528 18.0358 2.42205 18.2239C2.41083 18.2926 2.37428 17.8531 2.38897 18.8182C2.44561 18.4339 2.41964 20.1565 2.40545 20.4734C2.41306 20.4101 2.42067 20.3468 2.42828 20.2835C2.40775 20.5968 2.42701 20.6533 2.42596 20.7239C2.42174 21.0084 2.40234 21.3994 2.40411 21.6643C2.40614 21.9744 2.44137 21.9754 2.42767 22.3369C2.43544 22.2511 2.44321 22.1654 2.45098 22.0796C2.44911 22.3293 2.44724 22.5789 2.44537 22.8285C2.39874 22.2504 2.44314 22.9533 2.44415 22.9996C2.44584 23.0734 2.42676 22.9673 2.42913 23.0908C2.42952 23.1036 2.4475 23.0851 2.44952 23.2755C2.45368 23.6732 2.43107 23.6104 2.43133 23.7773C2.43145 23.7927 2.44764 23.7391 2.45147 24.0275C2.46367 24.9442 2.43906 24.023 2.43682 23.9878C2.43387 23.9416 2.36619 24.2559 2.39019 23.4772C2.38255 23.7387 2.3526 23.765 2.35186 23.7944C2.35125 23.8205 2.35547 24.2735 2.3565 24.2985C2.36667 24.5212 2.38713 24.3252 2.3908 24.3686C2.39376 24.4041 2.36709 24.9499 2.42864 25.0778C2.37186 25.3389 2.37707 24.9275 2.36834 24.4896C2.35669 24.4258 2.34536 24.9067 2.34539 24.9319C2.34549 25.5522 2.3922 25.2088 2.42205 25.3444C2.43767 25.4156 2.40581 25.6684 2.44769 25.435C2.45211 25.998 2.42784 25.6566 2.42425 25.693C2.41897 25.7478 2.43098 25.9448 2.42938 25.9695C2.42701 26.0057 2.41251 25.8799 2.4074 26.0226C2.40666 26.0463 2.43161 26.2762 2.44354 25.9797C2.43999 26.3759 2.46127 26.3432 2.41839 26.4776C2.49951 26.7504 2.37044 26.6755 2.3659 26.783C2.35876 26.9533 2.3785 26.9926 2.39628 26.9998L1.49268 26.0962C1.49516 26.09 1.49379 26.0841 1.49268 26.0796L2.41284 26.9998C2.4165 26.9989 2.4192 26.9981 2.42029 26.9998L1.49268 26.0722C1.49296 26.072 1.49331 26.0718 1.49375 26.0718C1.5977 26.0519 2.38854 26.0737 2.58439 26.0646C2.50712 26.1104 1.95745 26.0651 1.83453 26.074C1.42477 26.1036 2.41208 26.0969 2.11449 26.1545C2.23926 26.1387 2.36403 26.1229 2.48879 26.107C2.71755 26.1441 2.39301 26.1603 3.00867 26.1467C3.10935 26.1147 2.57339 26.1518 2.68091 26.1266C2.74429 26.1118 3.10127 26.1086 3.1083 26.1008C3.11533 26.0914 2.79269 26.1025 2.84355 26.0881C2.95457 26.057 4.13137 26.0866 3.23555 26.1036C3.48541 26.1031 3.61416 26.165 3.83084 26.1457C3.97095 26.1332 3.18267 26.0476 4.3653 26.0633C4.39048 26.0926 3.89248 26.072 3.87957 26.0742C3.86139 26.0774 3.95149 26.1435 3.96709 26.1467C4.02223 26.1574 5.22993 26.1221 5.48512 26.1553C5.3841 26.1171 6.39769 26.1484 6.5081 26.1368C6.53749 26.1336 6.42764 26.1102 6.45906 26.1078C6.65505 26.093 7.18521 26.1348 7.43114 26.1358C7.70637 26.1371 7.6715 26.1169 7.68689 26.1169C7.808 26.1181 7.71124 26.1317 7.78528 26.1317C7.89711 26.1316 8.6657 26.1344 8.70428 26.1316C8.71558 26.1307 8.59011 26.1076 8.75767 26.1033C8.78669 26.1025 8.76829 26.1298 9.2645 26.118C9.86211 26.1038 8.84952 26.084 9.09784 26.0554C9.4817 26.0962 9.46924 26.0558 9.57332 26.0589C9.60938 26.0601 9.8776 26.0944 10.1689 26.0923C9.95984 26.0978 9.75075 26.1034 9.54167 26.109C9.74721 26.115 10.1464 26.1076 10.3157 26.1144C10.3983 26.1177 10.3303 26.1459 10.5097 26.1451C10.5478 26.1448 10.6989 26.0761 10.2288 26.1069C10.1912 26.0824 10.4149 26.0984 10.5187 26.0914C10.5344 26.0903 10.5963 26.0493 10.7288 26.0748C10.7606 26.0811 10.4142 26.2007 11.3077 26.1141C11.3364 26.1113 11.2364 26.0963 11.2645 26.0932C11.2838 26.0911 11.5118 26.0972 11.537 26.0951C11.5628 26.0928 11.4527 26.0764 11.4833 26.0732C11.6407 26.0566 11.8472 26.1215 11.5228 26.1166C11.6312 26.1246 11.7396 26.1326 11.848 26.1406C11.732 26.0917 12.0183 26.1269 12.1683 26.1253C13.1298 26.1157 12.486 26.0839 12.6513 26.0675C12.9172 26.0411 12.7141 26.1247 13.1088 26.0996C13.1453 26.0972 12.6682 26.0617 13.5998 26.0818C13.4623 26.0832 13.3248 26.0845 13.1873 26.0859C13.2666 26.1332 13.6838 26.0827 13.7158 26.082C14.0817 26.0755 13.8344 26.0926 14.3776 26.0682C14.4261 26.066 14.5317 26.0777 14.6355 26.0719C15.0655 26.0479 14.0681 26.0573 14.0408 26.0382C14.0279 26.0288 15.1005 26.0312 15.1373 26.0356C15.2937 26.0554 14.6511 26.0443 14.7736 26.0688C14.8154 26.077 16.1589 26.0618 16.5813 26.0677C16.5834 26.0676 16.5897 26.0678 16.5918 26.0678C16.6102 26.0684 16.6258 26.0687 16.6384 26.0691C16.8639 26.0742 16.9811 26.1024 16.9668 26.034C17.0459 26.0892 17.0913 26.0255 17.1186 26.0173C17.4544 25.9 17.4577 25.8898 17.6967 25.701C17.7001 25.6981 17.7034 25.6953 17.7067 25.6925C17.7545 25.6536 17.8042 25.6307 17.8179 25.6123C17.826 25.6007 17.7923 25.6033 17.8337 25.5496C17.9108 25.491 18.2126 25.0122 18.2186 24.9642C18.2487 24.9295 18.1321 25.1907 18.1694 25.152C18.2466 24.9951 18.2936 24.831 18.3198 24.6598C18.3278 24.6075 18.3358 24.5565 18.3441 24.505C18.3649 24.3755 18.3691 24.4443 18.378 24.3884C18.3818 24.3646 18.4377 23.915 18.4294 23.9331C18.4194 23.9553 18.3591 24.3433 18.3082 24.6565C18.2762 24.8482 18.2167 24.9868 18.241 24.8733C18.2513 24.8287 18.3165 24.673 18.2705 24.6915C18.2729 24.6788 18.2751 24.6661 18.2772 24.6533C18.4726 23.4379 18.6678 22.224 18.8629 21.01C18.7845 21.7242 18.6351 22.5186 18.5242 23.2622C18.5089 23.3641 18.4523 23.7079 18.4791 23.6691C18.5812 23.038 18.6909 22.2506 18.7972 21.6458C18.8006 21.6265 18.808 21.7006 18.8221 21.6283C18.8483 21.4931 18.8865 21.0459 18.9056 20.9726C18.9093 20.9601 18.8949 21.2158 18.9221 21.1415C18.9917 20.9509 18.9119 20.8876 18.9388 20.7186C18.9597 20.588 19.1365 19.7157 19.1433 19.4928C19.1505 19.2557 19.0276 20.1378 19.0143 20.0693C19.0821 19.47 19.1995 18.8707 19.2828 18.3074C19.2842 18.2975 19.2528 18.3808 19.2695 18.2549C19.2985 18.0356 19.3332 17.9822 19.3536 17.8765C19.3756 17.7625 19.434 17.3562 19.4517 17.3034C19.454 17.2967 19.4671 17.3828 19.4659 17.3954C19.4494 17.5737 19.4065 17.6314 19.4036 17.6474C19.3931 17.7076 19.3968 17.7689 19.3876 17.8239C19.3724 17.9145 19.3529 17.9626 19.3336 18.0822C19.3201 18.1648 19.355 18.0885 19.3418 18.168C19.3368 18.1971 19.2368 18.5045 19.2851 18.542C19.3004 18.5537 19.7167 15.9782 19.7429 15.7184C19.7027 15.9385 19.6625 16.1587 19.6222 16.3788C19.7065 15.9322 19.7469 15.3864 19.8152 15.3577C19.9396 14.5619 20.064 13.766 20.1884 12.9702C20.2287 12.7131 20.2123 12.4459 20.1403 12.1942C20.0686 11.9424 19.9415 11.7064 19.7704 11.5078C19.712 11.44 19.6486 11.3765 19.5808 11.318C19.4185 11.186 19.5435 11.2066 19.2301 11.0443C19.3056 11.0967 19.3764 11.1542 19.4419 11.216C19.3944 11.1787 19.2861 11.1019 19.1477 11.036C18.8843 10.8996 18.5073 10.8586 18.424 10.869C18.4165 10.8694 18.4075 10.877 18.3821 10.886C18.329 10.8965 18.2496 10.9083 18.0959 10.91C17.8467 10.9128 17.8067 10.8853 17.6735 10.88C17.5616 10.8757 17.436 10.8829 17.4028 10.8813C17.3774 10.8801 17.3673 10.8633 17.306 10.8604C17.1125 10.8513 17.2693 10.8987 17.0773 10.8442C17.124 10.8422 17.1708 10.8401 17.2176 10.838C16.984 10.8301 16.665 10.8054 17.009 10.7932C17.0681 10.7911 17.0173 10.8074 17.0614 10.8074C18.7886 10.8043 17.4094 10.7727 16.8041 10.798C16.6487 10.7738 15.7775 10.7886 15.7486 10.7838C15.7083 10.7769 15.8574 10.7576 15.662 10.741C15.6209 10.7374 14.4561 10.751 14.8755 10.7189C14.962 10.7122 15.5205 10.7192 15.6551 10.7183C15.3384 10.6671 14.5959 10.7404 14.5124 10.7385C14.1755 10.7305 15.1594 10.6942 14.4006 10.6882C13.8172 10.6837 14.3649 10.7178 14.1405 10.7324C14.0144 10.7406 13.3541 10.703 13.3721 10.7517C13.1454 10.7569 13.2781 10.7311 13.2501 10.7292C13.2227 10.7276 12.7771 10.7422 12.6324 10.7319C12.6149 10.7307 12.6701 10.7053 12.652 10.7032C12.6167 10.6997 12.1869 10.7048 12.1697 10.7069C12.1587 10.7084 12.2611 10.7306 12.219 10.736C12.1699 10.7422 11.7564 10.7369 11.7336 10.7433C11.7014 10.7529 12.2119 10.7466 12.1268 10.7714C11.8915 10.7651 11.5081 10.7817 11.3528 10.8016C11.3908 10.7959 11.619 10.7951 11.6982 10.7971C11.6609 10.8334 11.171 10.833 11.3385 10.8042C11.232 10.8196 11.3047 10.8278 11.2448 10.8424C11.229 10.8461 11.0778 10.8469 11.0486 10.8531C11.0448 10.8544 11.2009 10.8681 11.1697 10.8755C11.1131 10.8888 10.6544 10.8858 10.6169 10.8823C10.5113 10.8724 10.8852 10.8604 10.9164 10.8451C10.9208 10.8427 10.6028 10.8127 10.598 10.8101C10.5794 10.7816 10.9333 10.8021 10.8928 10.7765C10.8053 10.7711 10.7178 10.7657 10.6302 10.7603C10.9678 10.7343 11.5924 10.7476 11.7535 10.7181C11.2529 10.7269 10.7291 10.7259 10.7302 10.6594C10.7305 10.6314 10.9465 10.615 10.9381 10.6079C10.9063 10.5824 10.6065 10.6101 10.5955 10.6088C10.5864 10.6072 10.5822 10.6057 10.5822 10.6042C10.5822 10.6042 10.5822 10.6042 10.5822 10.6042C10.5822 10.5893 11.0095 10.5786 11.0309 10.5718C11.0669 10.5597 10.8767 10.5099 10.877 10.4989C10.8836 10.4967 11.1879 10.4849 11.0852 10.4657C10.9813 10.4463 10.715 10.4458 10.7057 10.4438C10.6548 10.4322 11.1207 10.4216 11.1346 10.4148C11.1419 10.4113 10.8917 10.39 10.8844 10.3839C10.8782 10.3777 11.0683 10.3643 11.1433 10.345C11.1991 10.3305 11.0365 10.3195 11.0651 10.3172C11.0855 10.3157 11.5257 10.316 11.5474 10.3135C11.5796 10.3097 11.4765 10.2925 11.4915 10.2882C11.5128 10.282 11.655 10.2882 11.6365 10.2818C11.6225 10.2771 11.0714 10.2177 11.075 10.2019C11.0813 10.1748 11.6649 10.2371 11.1219 10.1303C11.1181 10.1296 10.9859 10.1372 10.9822 10.1366C10.9006 10.1169 11.3244 10.0867 10.8062 10.092C11.7701 10.0579 10.9262 10.0514 11.0688 10.0058C11.1239 9.98833 11.4975 9.98111 11.4993 9.97848C11.463 9.95628 11.3439 9.9735 11.3034 9.96261C11.2812 9.95653 11.6155 9.93305 11.5402 9.91781C11.5013 9.90996 11.1464 9.91275 11.1318 9.91122C10.9914 9.89677 11.1636 9.8812 11.1327 9.87093C11.1122 9.86405 10.8981 9.86351 10.8925 9.86227C10.8835 9.85969 11.1743 9.83188 11.2348 9.8221C11.2809 9.81458 11.108 9.8028 11.1402 9.79952C11.3338 9.77991 11.7456 9.82992 11.3487 9.75985C11.3245 9.75555 11.1744 9.75728 11.17 9.75643C11.0772 9.73656 11.3536 9.73485 11.4031 9.71859C11.488 9.69056 11.0907 9.70619 11.4211 9.68648C11.1732 9.66815 11.0351 9.66892 10.7451 9.67403C11.5481 9.65978 11.8316 9.58724 10.94 9.58906C11.2236 9.59019 11.1921 9.54925 11.2767 9.54853C11.3293 9.54813 11.7406 9.58884 11.552 9.49751C11.5284 9.4861 11.2786 9.50059 11.3568 9.47724C11.9563 9.4832 11.3695 9.46238 11.3689 9.4593C11.3767 9.4055 12.8416 9.44956 13.0933 9.44343C13.3854 9.43631 13.645 9.39392 13.7085 9.39387C13.9174 9.39385 13.744 9.41537 13.7907 9.42329C13.8381 9.43113 14.4321 9.38989 14.4618 9.39216C14.5768 9.40125 14.46 9.42676 14.472 9.42805C14.6145 9.44368 15.4122 9.4237 15.6356 9.42963C15.6287 9.41309 15.1803 9.41177 15.4602 9.3852C15.7862 9.35421 15.8049 9.42716 15.8134 9.43037C16.6667 9.42997 17.52 9.42957 18.3732 9.42918C18.8376 9.4234 19.3106 9.52182 19.7411 9.71541C20.0459 9.85216 20.3295 10.0361 20.5787 10.2585C20.5916 10.2214 20.1005 9.83466 19.748 9.70003C19.6038 9.63727 19.4949 9.60255 19.4877 9.59812C19.4478 9.57672 19.5655 9.60525 19.7547 9.68517C20.0939 9.81683 20.6187 10.1828 20.8982 10.5282C21.0495 10.7044 21.1459 10.8582 21.178 10.9141C21.0979 10.7768 21.0076 10.6449 20.908 10.5198C20.8851 10.491 20.8617 10.4627 20.8379 10.4347C20.8636 10.4559 20.8909 10.4811 20.9193 10.5099C21.1891 10.7664 21.4765 11.3515 21.6009 11.7706C21.6024 11.7751 21.6038 11.7796 21.6053 11.7841C21.6297 11.8597 21.6257 11.8219 21.6153 11.7664C21.6052 11.712 21.5866 11.6412 21.5881 11.644C21.6038 11.6796 21.6191 11.7208 21.6321 11.7616C21.6785 11.9087 21.6944 12.0468 21.639 11.8889C21.7525 12.3069 21.7119 12.2522 21.7326 12.5815C21.7322 12.5988 21.7492 12.4547 21.7601 12.7185C21.7624 12.7844 21.7568 13.0034 21.7276 13.2047C21.7091 13.3421 21.6935 13.4695 21.696 13.5022C21.6983 13.531 21.8065 13.2855 21.7519 13.2448C21.7544 13.233 21.7567 13.2217 21.759 13.2107C21.8522 12.5556 21.7535 13.0161 21.7695 12.7427C21.7581 12.701 21.8461 12.7951 21.7334 12.0944C21.8434 12.215 21.8153 13.047 21.7761 13.1824C21.775 13.1948 21.7742 13.2045 21.7739 13.2117C21.7733 13.2298 21.7758 13.2288 21.7804 13.214C21.8415 13.0936 21.8511 12.2313 21.7497 12.0633C21.8107 12.1531 21.7529 11.9883 21.6825 11.747C21.6798 11.738 21.6772 11.729 21.6745 11.7198C21.587 11.441 21.6388 11.5575 21.5825 11.409C21.4057 11.0115 21.4548 11.1897 21.3006 10.866C21.3694 11.1109 21.195 10.7456 20.9765 10.4603C20.8876 10.3407 20.7951 10.2332 20.7392 10.172C20.8316 10.2558 20.9194 10.3446 21.0022 10.4379C21.2236 10.6875 21.4087 10.9698 21.5497 11.2731C21.5433 11.2472 21.5366 11.2213 21.5296 11.1954C21.5816 11.3053 21.6278 11.4178 21.668 11.5325C21.657 11.5157 21.646 11.4991 21.6348 11.4826C21.6749 11.5754 21.7052 11.6591 21.7288 11.7335C21.8457 12.1219 21.8183 12.2435 21.8268 12.2846C21.861 12.5797 21.8585 12.9004 21.8096 13.2172C21.7649 13.5052 21.7206 13.7948 21.6794 14.0636C21.6681 14.1374 21.7059 14.0913 21.5999 14.6263C21.5661 14.7969 21.5675 14.6311 21.5412 14.8264C21.5675 15.0797 21.5175 15.0674 21.5063 15.1398C21.4745 15.3476 21.4708 15.477 21.468 15.4963C21.4311 15.7534 21.3709 16.129 21.33 16.4114C21.3295 16.4168 21.3715 16.273 21.3377 16.4553C21.3257 16.5194 21.1539 17.0836 21.1039 17.5923C21.1296 17.4619 21.1553 17.3316 21.181 17.2012C21.1495 17.3543 21.005 18.4386 21.0678 18.1777C21.1063 18.0177 21.1131 17.6139 21.1714 17.5784C21.1009 17.9358 20.8197 19.9262 20.784 20.0791C20.779 20.1002 20.7824 19.966 20.7757 19.9952C20.7706 20.0178 20.7049 20.4736 20.6892 20.533C20.6798 20.5684 20.7003 20.3657 20.6918 20.3811C20.6853 20.3948 20.5911 20.962 20.6071 20.9977C20.6201 20.8568 20.6875 20.4657 20.6737 20.6741C20.6719 20.7009 20.6373 20.836 20.6352 20.8686C20.6152 21.1708 20.7456 20.2784 20.7669 20.1405C20.708 20.7046 20.5437 21.5658 20.4618 22.2173C20.4042 22.4768 20.4946 21.8245 20.4347 22.1189C20.3104 22.7297 20.4338 22.2864 20.4331 22.3058C20.4273 22.4614 20.253 22.9675 20.3249 22.9788C20.2799 23.2002 20.2819 23.1266 20.2431 23.4429C20.2544 23.4022 20.2658 23.3616 20.2771 23.3209C20.2653 23.6769 20.0467 24.4005 20.0472 24.3439C20.0486 24.1915 20.1411 23.8113 20.1453 23.7783C20.1516 23.7294 20.0991 23.5836 20.2461 23.0606C20.2305 22.8348 20.0836 23.9003 20.1243 23.4115C20.092 23.6489 19.957 24.4176 19.8821 24.8976C19.8467 25.1287 19.7962 25.3029 19.782 25.3703C19.7722 25.3984 19.8769 25.2854 19.6991 25.6815C19.6111 25.8665 19.7927 25.4079 19.7462 25.4908C19.696 25.5925 19.4379 26.3398 18.7484 26.9166C18.1464 27.4514 17.2306 27.731 16.5733 27.7087C16.3029 27.7101 16.0823 27.7113 15.9642 27.7117C15.9265 27.7118 15.9403 27.6964 15.9033 27.6966C15.7897 27.697 15.3755 27.7199 15.1721 27.7128C15.5935 27.7412 14.7751 27.7434 14.5669 27.7403C14.2509 27.7355 14.2704 27.7085 14.1339 27.7028C13.6078 27.6807 12.7925 27.7447 12.3837 27.6849C12.4061 27.7443 11.6767 27.6557 11.3449 27.6552C11.085 27.6548 10.708 27.6941 11.0588 27.7181C10.6101 27.7153 10.1379 27.7264 9.71703 27.73C9.64746 27.7306 9.74323 27.7131 9.62454 27.7146C9.61376 27.7149 9.5989 27.7321 9.49697 27.7339C8.65561 27.7489 9.065 27.7123 8.90758 27.7016C8.81949 27.6956 8.75448 27.6926 8.70677 27.6916C9.19717 27.6882 9.76285 27.6814 9.91411 27.681C9.78508 27.6429 8.82715 27.6883 8.54662 27.678C8.53689 27.6776 8.57077 27.6567 8.56089 27.6565C8.56069 27.6565 8.56048 27.6565 8.56027 27.6565C8.45513 27.6549 7.78555 27.6627 7.92339 27.6877C7.96039 27.6943 8.2686 27.6943 8.63414 27.6921C8.5352 27.6967 8.60907 27.7202 8.59162 27.7212C8.3799 27.7328 7.86125 27.7099 7.67727 27.7068C7.63522 27.7062 7.63823 27.7212 7.63133 27.7212C7.46399 27.7178 7.53265 27.6749 7.361 27.7192C7.05797 27.6656 7.92889 27.7112 7.86752 27.6764C7.82038 27.6497 5.88593 27.664 5.8917 27.7062C5.88503 27.7017 5.85843 27.6961 5.80387 27.6897C5.68288 27.6756 5.14444 27.68 5.05153 27.6878C5.03585 27.6893 5.04211 27.7303 5.02266 27.7306C4.97403 27.7316 4.31593 27.6995 4.07013 27.7237C4.20287 27.7294 4.3356 27.7352 4.46834 27.7409C3.66676 27.7412 3.79065 27.7534 4.05772 27.7657C4.07107 27.7658 4.08407 27.7673 4.09683 27.7675C4.30383 27.7766 4.56922 27.7853 4.57325 27.7885C4.58843 27.8008 3.22848 27.8077 3.49005 27.7697C3.52651 27.7645 4.15573 27.7814 3.84418 27.7543C3.78967 27.7496 3.38557 27.7573 3.36435 27.7543C3.22233 27.7345 4.10475 27.7081 3.99689 27.6799C3.78272 27.7067 3.50787 27.6926 3.26224 27.6995C3.15046 27.7026 3.12302 27.7232 3.10923 27.7236C2.90315 27.7289 3.01881 27.7074 2.95001 27.7079C2.9131 27.7083 2.50701 27.7541 2.58377 27.691C1.24578 27.7374 2.21365 27.7374 3.03443 27.7338C2.77509 27.7568 2.26661 27.7457 2.03845 27.751C1.95658 27.753 2.0051 27.774 1.86681 27.7782C1.79679 27.7804 1.66176 27.7805 1.49268 27.7794C1.05177 27.7686 0.702191 27.4407 0.713029 26.9998C0.716344 26.4815 0.731162 25.6433 0.735464 25.3764C0.742909 25.5938 0.76586 25.5302 0.764274 25.3624C0.762677 25.1946 0.732044 25.3356 0.72875 25.3028C0.725341 25.2677 0.7398 24.4804 0.735831 24.3494C0.746926 24.9421 0.769813 24.8084 0.772209 24.3053C0.778801 24.378 0.785393 24.4507 0.791985 24.5235C0.782721 24.2286 0.817635 23.6086 0.807244 23.4381C0.805575 23.4114 0.786331 23.5074 0.785393 23.4924C0.777217 23.3429 0.796842 22.8342 0.790276 22.8105C0.78481 22.7905 0.768677 23.0075 0.760734 22.9269C0.759061 22.9101 0.785073 22.7009 0.778679 22.4949C0.776326 22.4185 0.758127 22.4645 0.757072 22.4452C0.748318 22.2847 0.778965 22.3795 0.77404 22.0861C0.770395 21.8712 0.740434 21.7112 0.750358 21.4142C0.712163 22.3893 0.728117 21.5696 0.716543 21.1618C0.714696 21.0965 0.681657 21.1525 0.697743 20.7621C0.757484 21.593 0.72932 20.5252 0.729971 20.3068C0.730174 20.2948 0.751962 20.2907 0.752311 20.1836C0.752291 20.1745 0.737567 20.1875 0.736441 20.088C0.725796 19.1437 0.74243 19.7475 0.75695 19.5681C0.763137 19.4917 0.742315 19.0325 0.741812 18.9089C0.74176 18.8804 0.75706 18.8935 0.756461 18.7835C0.755363 18.5888 0.739075 18.4144 0.737784 18.2859C0.737709 18.271 0.761849 18.2703 0.75402 18.0268C0.751831 17.9583 0.74326 17.8814 0.736319 17.9787C0.713491 18.3012 0.752999 18.913 0.730215 19.2776C0.709465 19.61 0.707508 18.5618 0.707387 18.5072C0.707311 18.4872 0.719298 18.692 0.72167 18.484C0.723645 18.3064 0.68195 17.9817 0.691029 17.717C0.691703 17.6969 0.727055 17.4854 0.729116 17.4951C0.730622 17.504 0.738296 17.8288 0.748526 17.7816C0.749692 17.776 0.749455 17.5696 0.757072 17.5426C0.766344 17.5096 0.857333 17.4206 0.859615 17.3766C0.865251 17.2634 0.844499 17.3371 0.845942 17.2639C0.848986 17.107 0.875894 16.5628 0.844355 16.5451C0.842483 16.635 0.840612 16.7249 0.83874 16.8148C0.835496 16.3146 0.822071 16.5278 0.816156 16.4569C0.809757 16.3806 0.837479 16.4021 0.840083 16.2335C0.840655 16.1968 0.834868 15.4913 0.823236 15.5041C0.841749 15.8943 0.80749 15.7496 0.806878 15.7676C0.804647 15.836 0.823863 15.9233 0.82348 16.015C0.820473 16.66 0.790141 16.0095 0.782341 16.1618C0.779716 16.2142 0.796121 16.3186 0.795281 16.3409C0.792564 16.4131 0.771082 16.4143 0.772819 16.4625C0.776852 16.575 0.80725 16.4437 0.808831 16.4526C0.827855 16.5531 0.804185 16.9471 0.77111 16.7018C0.75919 16.849 0.799389 16.8663 0.783318 16.983C0.751496 17.2151 0.75967 16.8674 0.754386 16.7732C0.735326 16.4353 0.750755 16.335 0.745475 15.8567C0.743612 15.6844 0.724085 15.4804 0.723013 15.4004C0.722339 15.3501 0.790277 14.8747 0.683949 14.8607C0.694237 14.6759 0.764305 14.386 0.7611 14.1956C0.758177 14.0246 0.720561 14.079 0.719106 14.063C0.71682 14.0386 0.719784 13.8319 0.714468 13.762C0.708187 13.6801 0.693829 13.721 0.687977 13.591C0.673454 13.2675 0.711851 13.276 0.714345 13.2427C0.743187 12.8568 0.688574 13.0258 0.684193 12.9401C0.683142 12.9193 0.683798 12.8279 0.685094 12.6999C0.686882 12.6272 0.723414 12.438 0.754559 12.3722C0.904984 12.0424 1.17904 11.4468 1.24023 11.2838C1.20843 11.3744 1.17663 11.465 1.14483 11.5556C1.2362 11.4088 1.27416 11.227 1.31471 11.2415C1.26544 11.1816 1.45123 10.8773 1.49267 10.7796C1.50898 10.741 1.49684 10.7392 1.51763 10.6911C1.59876 10.5033 1.79452 10.0855 1.83407 9.98165C2.00523 9.53254 1.46808 10.6368 1.4265 10.724C1.50567 10.5476 1.93543 9.54124 1.7009 9.98739C1.66465 10.0564 1.63712 10.1949 1.62051 10.2353C1.5079 10.5086 1.57679 10.2849 1.56497 10.305C1.54509 10.3393 1.49073 10.528 1.46698 10.5736C1.45909 10.5888 1.48082 10.4778 1.36598 10.7352C1.39992 10.5986 1.73953 9.8826 1.77647 9.78527C1.78962 9.7506 1.64778 9.94155 1.96918 9.34244C1.96157 9.34766 1.95395 9.35288 1.94634 9.3581C2.09769 9.01225 2.24905 8.6664 2.4004 8.32055C2.39395 8.36257 2.32842 8.5654 2.4324 8.31947C2.49225 8.17788 2.4234 8.27173 2.42843 8.25862C2.47814 8.12978 3.4762 5.90195 3.66563 5.46842C3.7301 5.32098 3.89386 4.90288 3.9074 4.87146C3.98856 4.68372 4.2943 4.02704 4.35035 3.89384C4.3853 3.81065 4.33152 3.88061 4.36511 3.80734C4.39636 3.73925 4.38322 3.81833 4.39301 3.79834C4.47445 3.63283 5.01846 2.3425 5.17067 2.04632C5.08302 2.22973 4.70826 3.17277 4.72947 3.15988C4.73304 3.15664 4.84699 2.9376 4.86081 2.88811C4.91077 2.8184 4.9794 2.53337 5.05254 2.39424C5.06081 2.37851 5.05961 2.4544 5.17811 2.20074C5.21892 2.11335 5.30022 1.87318 5.42704 1.65144C5.48763 1.50147 5.67991 1.07908 5.87856 0.641242C6.01013 0.363482 6.37944 0.108265 6.68669 0.115817C7.44519 0.107819 8.19978 0.365943 8.28828 0.38321C8.29436 0.381322 7.97804 0.267875 8.19821 0.325078C8.48048 0.406368 8.23174 0.371923 8.51181 0.490531C8.52034 0.494329 8.52935 0.498308 8.53886 0.502487C8.59778 0.501444 9.44757 0.973503 9.46314 1.0095C9.72699 1.15044 9.0258 0.658882 9.02833 0.67546C9.06561 0.670304 9.66512 1.06219 9.67908 1.09254C9.69902 1.11028 9.21392 0.791192 9.77304 1.20673C9.71516 1.15148 9.65581 1.09759 9.59505 1.04513C9.86173 1.23873 9.8601 1.28914 9.91868 1.34213C9.97186 1.3929 10.0284 1.44268 10.0873 1.49693C10.2254 1.62442 10.3807 1.77789 10.5155 2.02302C10.5655 2.11523 10.4491 1.98724 10.4549 1.99935C10.5139 2.1093 10.6516 2.20771 10.7165 2.38828C10.7171 2.40356 10.4844 2.04164 10.8608 2.69446C10.84 2.64677 10.8184 2.59936 10.796 2.55226C10.832 2.60312 10.9731 2.85358 11.0682 3.08375C11.1377 3.24727 11.1874 3.39766 11.1998 3.4388C11.2814 3.72881 11.1831 3.48432 11.2635 3.77451C11.2672 3.57312 11.4438 4.48019 11.3867 4.43295C11.4107 4.48802 11.4324 4.67611 11.4306 4.89997C11.4287 5.12691 11.4188 5.39792 11.4183 5.56492C11.4177 5.75563 11.4356 6.14463 11.4335 6.20522C11.431 6.27903 11.4029 6.2566 11.3967 6.38989C11.3949 6.4279 11.4154 6.82468 11.3864 7.17296C11.3808 7.24045 11.3332 7.38221 11.3213 7.25676C11.301 7.04202 11.3393 6.6358 11.3112 6.64098C11.2811 6.64707 11.299 7.19422 11.2951 7.34149C11.2769 8.0214 11.245 7.62879 11.2353 7.64627C11.2118 7.69162 11.2125 8.06312 11.2104 8.07862C11.201 8.14286 11.1824 7.87961 11.168 7.87564C11.1493 7.87084 11.1156 8.22893 11.1093 8.14752C11.1004 8.03099 11.1285 7.7019 11.1271 7.68103C11.109 7.40943 11.0658 7.78172 11.0446 7.88433C11.0381 7.91543 11.0273 7.7915 11.0254 7.81729C10.9964 8.21095 11.0861 7.90027 11.0801 8.16211C11.0748 8.39572 11.0464 8.09515 11.0448 8.10407C11.0431 8.1156 11.0416 8.39492 11.0315 8.43865C11.0265 8.4602 10.9713 7.73421 10.9466 7.76452C10.952 7.99616 10.9575 8.2278 10.9629 8.45944C10.9307 8.4776 10.9544 8.14443 10.9511 8.10997C10.9444 8.04059 10.9281 8.23404 10.9179 8.22574C10.9114 8.22128 10.8882 7.99424 10.8787 8.19935C10.8754 8.26985 10.898 8.41779 10.8749 8.67453C10.8454 7.78102 10.8273 8.40021 10.8158 8.42655C10.8044 8.45234 10.7775 8.02578 10.7823 8.54355C10.7195 8.566 10.7624 8.53239 10.7514 8.38527C10.7378 8.20503 10.7171 8.62159 10.7328 7.96285C10.7034 8.00033 10.7055 8.5298 10.7032 8.55783C10.701 8.58204 10.6866 8.46435 10.6817 8.50631C10.6249 9.00268 10.6508 8.66175 10.6145 8.80551C10.6113 8.81829 10.5978 9.28744 10.5926 8.93028C10.5829 8.27959 10.6246 8.00764 10.5355 7.89829C10.4969 8.37959 10.5543 8.96274 10.5553 9.10905C10.5567 9.33299 10.5386 9.10101 10.5335 9.1286C10.5318 9.13819 10.5333 9.33117 10.5319 9.33376C10.464 9.47136 10.5308 8.47467 10.5189 8.16087C10.5088 8.24498 10.4986 8.32909 10.4884 8.4132C10.488 8.29909 10.4876 8.18497 10.4872 8.07086C10.4668 8.61449 10.4795 8.09003 10.4245 7.95447C10.4121 7.92404 10.4333 8.28119 10.3989 7.87377C10.391 8.17426 10.3798 8.07842 10.3953 8.3505C10.3732 8.34348 10.3484 7.7313 10.3371 7.48984C10.3123 8.34285 10.3931 7.85641 10.3504 8.59384C10.3777 8.73058 10.3723 8.3786 10.3768 8.4073C10.393 8.51028 10.3673 8.75168 10.4241 9.04294C10.4334 9.09037 10.4621 8.8897 10.4607 9.18664C10.4605 9.21949 10.436 9.4087 10.4342 9.40608C10.415 9.38099 10.4222 9.19375 10.4142 9.18602C10.4066 9.17877 10.4112 9.38766 10.4091 9.38838C10.385 9.3948 10.3999 9.21409 10.3924 9.24034C10.376 9.29702 10.3242 10.0484 10.3394 9.06777C10.3666 9.8823 10.3659 9.17206 10.3555 8.85486C10.3529 8.77397 10.3385 8.75348 10.3335 8.63822C10.3271 8.48995 10.334 8.31642 10.3313 8.2397C10.3284 8.15719 10.2944 8.62602 10.3046 7.94795C10.2708 8.29304 10.3068 8.9026 10.2831 9.24158C10.2352 9.92549 10.2249 8.76473 10.2202 8.64381C10.219 8.61159 10.1996 8.71959 10.1984 8.69812C10.1966 8.663 10.2055 8.00422 10.1895 7.93926C10.1734 7.87448 10.1902 8.18056 10.1735 8.20091C10.1622 8.2147 10.1422 7.41997 10.1345 7.85019C10.1293 8.14671 10.1745 8.69327 10.1259 8.78533C10.1218 8.34926 10.1178 7.91319 10.1138 7.47712C10.0953 7.7158 10.0767 7.95447 10.0582 8.19315C10.0524 7.7037 10.0733 7.28058 10.0468 6.81572C9.98743 7.93275 9.99941 6.45303 9.99219 6.43676C9.98787 6.43131 9.93972 6.87099 9.93091 6.94173C9.91238 6.55213 9.90333 5.36828 9.84387 6.0609C9.85729 5.93518 9.82415 5.63074 9.82165 5.63476C9.79538 5.67342 9.81242 6.33741 9.78869 6.22912C9.76116 6.10362 9.79851 5.92776 9.79553 5.7347C9.78804 5.25805 9.75242 5.07364 9.71988 4.89997C9.68052 4.75429 9.6599 4.62174 9.58941 4.23428C9.58802 4.25011 9.5865 4.26589 9.58485 4.28161C9.54889 4.10428 9.49664 3.9301 9.42893 3.76198C9.28374 3.40097 9.06647 3.06841 8.79304 2.78972C8.6154 2.60845 8.4143 2.44984 8.19611 2.31912C8.10605 2.28074 7.97332 2.22171 7.81664 2.1669C7.46287 2.03487 6.9799 1.96748 6.68669 1.97198L7.57506 1.39438C7.57028 1.40497 7.56559 1.41536 7.56097 1.42552C7.51503 1.52679 7.27342 2.01685 7.25319 2.05294C7.21548 2.11967 7.38312 1.73512 7.29354 1.90276C7.27471 1.93819 6.89124 2.77922 6.93947 2.72832C6.98398 2.63476 7.10473 2.33372 7.1313 2.28747C7.31853 1.96286 6.13358 4.55446 6.09082 4.68992C6.12338 4.63533 6.15594 4.58074 6.1885 4.52615C6.11212 4.68897 6.03574 4.85179 5.95936 5.01461ZM10.9827 2.72767C11.0292 2.78949 11.0909 2.91783 11.1448 3.05204C11.1856 3.15271 11.2222 3.25643 11.2522 3.33582C11.355 3.58774 11.5374 4.02981 11.4065 3.8516C11.3408 3.57832 11.2513 3.3112 11.1396 3.05423C11.0914 2.94338 11.039 2.83443 10.9827 2.72767ZM5.63714 1.01631C5.7369 0.822711 5.71479 0.997407 5.62323 1.15174C5.61302 1.16884 5.50225 1.27828 5.63714 1.01631ZM8.88021 0.599423C8.87043 0.593621 8.66105 0.492078 8.65336 0.489264C8.47276 0.380562 9.10507 0.689915 8.88021 0.599423ZM2.14 9.01723C2.23521 8.79738 2.12271 8.93725 2.0796 9.08108C2.0769 9.09013 2.13371 9.03167 2.14 9.01723ZM2.21026 8.86198C2.32346 8.70867 2.39909 8.33224 2.2859 8.60794C2.27496 8.6347 2.20493 8.86904 2.21026 8.86198ZM7.10052 0.0852732C7.0701 0.0965396 6.81152 0.0740546 6.68669 0.0722848C6.36431 0.0643601 5.97682 0.332144 5.83877 0.623579C5.8372 0.626784 5.83568 0.629865 5.83423 0.63281C5.83282 0.63185 5.83308 0.627988 5.83471 0.621777C5.97342 0.328946 6.36276 0.0598803 6.68669 0.0678428C6.74636 0.058401 6.99817 0.0761122 7.10052 0.0852732ZM3.6668 5.51513C3.6743 5.52887 3.98996 4.81612 3.99653 4.76094C3.95297 4.8762 3.66022 5.50241 3.6668 5.51513ZM2.87162 7.34936C2.8816 7.33217 2.98788 7.08471 2.97467 7.08744C2.90818 7.20175 2.82663 7.42673 2.87162 7.34936ZM1.25875 10.9807C1.25534 10.9951 1.40095 10.8391 1.16507 11.2573C1.13046 11.3187 1.21546 11.0822 1.20306 11.104C1.17741 11.1497 1.15859 11.1865 1.14476 11.2167C1.22978 11.0109 1.3211 10.7985 1.33404 10.7798C1.39493 10.6919 1.26033 10.9743 1.25875 10.9807ZM0.633288 13.3095C0.644672 13.3553 0.638586 13.6482 0.633898 13.7148C0.633016 13.7262 0.603095 13.6764 0.605332 13.8082C0.60718 13.9141 0.637825 13.7559 0.632921 13.9622C0.627999 14.1706 0.606159 13.8921 0.6046 13.9103C0.602557 13.9347 0.616318 14.2571 0.598496 14.2471C0.585295 14.2396 0.594221 13.8942 0.591416 13.8088C0.58781 13.6995 0.565816 13.8321 0.570541 13.6493C0.573492 13.5345 0.612168 13.5981 0.614122 13.5739C0.615696 13.5536 0.593439 13.1521 0.633166 13.3101C0.633206 13.3099 0.633247 13.3097 0.633288 13.3095ZM1.12189 11.2724C1.1275 11.2565 1.13484 11.2383 1.14476 11.2167C1.13705 11.2353 1.12944 11.254 1.12189 11.2724ZM10.5652 2.07599C10.4932 1.95548 10.7493 2.28299 10.8122 2.42888C10.806 2.43537 10.5804 2.09253 10.5652 2.07599ZM1.06693 11.4738C0.923935 11.772 1.01042 11.5444 1.12189 11.2724C1.09069 11.3606 1.11494 11.3737 1.06693 11.4738ZM4.86081 2.88811C4.85251 2.89968 4.84482 2.90594 4.83761 2.90396C4.85987 2.87374 4.86517 2.8725 4.86081 2.88811ZM4.53581 3.58769C4.4491 3.83848 4.66624 3.34712 4.65014 3.34369C4.64394 3.34269 4.53929 3.57765 4.53581 3.58769ZM2.01332 9.29717C2.02515 9.27596 1.93481 9.64695 2.10955 9.12765C1.98408 9.39052 2.10196 9.10675 2.09468 9.10849C2.07423 9.1124 1.89081 9.5661 1.84011 9.66207C1.83368 9.75199 1.97429 9.36721 2.01307 9.29774C2.01315 9.29755 2.01324 9.29736 2.01332 9.29717ZM0.616808 17.069C0.598872 17.0027 0.604643 16.7925 0.605699 16.6506C0.623634 16.7169 0.617863 16.9271 0.616808 17.069ZM21.3161 16.6341C21.1853 17.5975 21.094 17.7109 21.2572 16.8361C21.2605 16.819 21.3177 16.5747 21.3161 16.6341ZM20.0343 24.8779C19.989 24.9636 20.0298 24.6632 20.073 24.4684C20.0827 24.4243 20.1398 24.2645 20.1172 24.4535C20.08 24.4417 20.0209 24.7302 20.0343 24.8779ZM1.00976 11.6529C0.990092 11.7495 0.856052 12.0142 0.789783 12.1556C0.812469 12.0614 0.947662 11.7763 1.00976 11.6529ZM20.7948 19.7859C20.7769 19.8868 20.7938 19.9594 20.7988 19.9422C20.8212 19.8656 20.8281 19.6729 20.7948 19.7859ZM1.40089 10.7799C1.41799 10.7727 1.26989 11.1364 1.23013 11.1486C1.26625 11.0728 1.38967 10.7856 1.40089 10.7799ZM0.626329 16.8014C0.63278 16.7405 0.644328 17.0561 0.637927 17.1515C0.624424 17.1439 0.622137 16.8414 0.626329 16.8014ZM20.5544 21.4179C20.5381 21.5083 20.5027 21.7347 20.5099 21.7615C20.519 21.7948 20.5651 21.4618 20.5544 21.4179ZM14.0986 9.27435C14.0871 9.26932 14.4421 9.23308 14.5999 9.24225C14.8996 9.2598 14.1112 9.27791 14.0986 9.27435ZM20.9275 18.825C20.9974 18.543 20.9235 18.8567 20.9529 18.8483C20.9833 18.656 21.058 18.1774 20.9806 18.5025C20.9656 18.5658 20.9431 18.7355 20.9275 18.825ZM20.878 19.0874C20.8821 19.1195 20.8786 19.3299 20.9039 19.1514C20.9155 19.0688 20.9047 18.9313 20.878 19.0874ZM16.2982 9.26202C16.5576 9.28658 15.3687 9.2734 15.3345 9.2691C15.3165 9.26683 15.3046 9.26469 15.2979 9.26288C15.2542 9.27066 15.0297 9.27206 15.0037 9.25238C15.071 9.25401 15.2548 9.25227 15.2762 9.25446C15.2854 9.25538 15.2922 9.25626 15.297 9.25714C15.3762 9.24006 16.2485 9.25737 16.2982 9.26202ZM18.2682 9.28729C17.9714 9.32352 17.9189 9.26193 17.9444 9.25995C18.2675 9.23474 18.0568 9.28016 18.0667 9.28229C18.0893 9.28583 18.3188 9.26475 18.2672 9.28729C18.2675 9.28729 18.2678 9.28729 18.2682 9.28729ZM16.702 9.27216C16.6898 9.27296 16.4407 9.27105 16.4304 9.27008C16.2263 9.24938 16.9312 9.25468 16.702 9.27216ZM0.67638 14.8818C0.670258 15.0602 0.647601 14.8852 0.655749 14.7667C0.656553 14.7569 0.681789 14.7244 0.67638 14.8818ZM20.8624 19.2292C20.8519 19.2694 20.6758 20.3127 20.7193 20.255C20.7289 20.1656 20.9283 18.9797 20.8624 19.2292ZM18.5128 27.2346C18.7139 27.094 18.5152 27.2776 18.3946 27.3345C18.3508 27.356 18.4621 27.2696 18.5128 27.2346ZM1.64239 10.3081C1.70478 10.1239 1.74289 10.1846 1.65612 10.3298C1.65272 10.3355 1.63994 10.3154 1.64239 10.3081ZM19.7621 25.7555C19.5977 26.1488 19.4726 26.2647 19.5044 26.1873C19.5273 26.1064 19.6999 25.8315 19.8673 25.3127C19.8625 25.3468 19.8572 25.3808 19.8513 25.4148C19.9381 25.1442 19.9612 24.9839 19.975 24.9105C19.9852 24.854 19.9844 24.8644 19.9774 24.9122C19.963 25.0601 19.8548 25.4733 19.79 25.6297C19.7485 25.7401 19.8017 25.6548 19.7625 25.7548C19.7624 25.755 19.7622 25.7553 19.7621 25.7555ZM17.3336 27.735C16.5231 27.8125 18.0652 27.5941 18.4067 27.2597C18.0599 27.5128 17.5257 27.7169 18.2372 27.4235C17.7369 27.6834 17.5616 27.6888 17.5352 27.697C17.5055 27.6985 17.6044 27.6618 17.5826 27.6668C17.5317 27.6804 17.3685 27.7317 17.3336 27.735ZM19.1558 26.6701C19.1885 26.6367 19.421 26.3676 19.4841 26.2552C19.4214 26.4309 18.9562 26.9132 19.1558 26.6701ZM20.7218 10.1752C20.6856 10.1708 20.6285 10.1259 20.4099 9.95308C20.4857 9.99526 20.6304 10.1009 20.7218 10.1752ZM10.9971 2.99767C11.0095 3.02639 11.0236 3.0603 11.038 3.09623C11.1065 3.2636 11.1729 3.4774 11.1609 3.38732C11.16 3.37931 11.0984 3.20407 11.0469 3.09256C11.0218 3.03676 11.0007 2.9963 10.9971 2.99767ZM20.3817 22.264C20.3746 22.2945 20.2509 23.0917 20.3143 22.8195C20.3334 22.7374 20.4418 22.0115 20.3817 22.264ZM21.0166 18.135C21.0061 18.2017 20.9682 18.4733 20.9719 18.4798C20.9848 18.5005 21.0271 18.1664 21.0166 18.135ZM11.2588 3.8499C11.2696 3.8715 11.3592 4.40319 11.3557 4.34421C11.3669 4.22847 11.251 3.7692 11.2588 3.8499ZM0.721914 15.5308C0.722633 15.5682 0.701518 15.6178 0.701283 15.6307C0.700982 15.6612 0.709103 16.3467 0.681996 16.0848C0.677452 16.0411 0.687863 15.0548 0.690541 14.9265C0.719527 14.8769 0.691953 15.2982 0.694936 15.4007C0.695502 15.4188 0.719752 15.4304 0.721792 15.5305C0.721833 15.5306 0.721873 15.5307 0.721914 15.5308ZM19.462 9.45986C19.4404 9.46196 19.1773 9.3844 18.9132 9.34896C18.6496 9.30943 18.3891 9.31033 18.3952 9.2991C18.7559 9.29545 19.1175 9.34987 19.462 9.45986ZM19.9556 9.6692C20.074 9.74152 19.9448 9.67329 19.7906 9.60521C19.6941 9.56224 19.5871 9.52075 19.5315 9.49899C19.533 9.49142 19.6779 9.53935 19.7964 9.59231C19.8761 9.62718 19.9442 9.6625 19.9556 9.6692ZM20.7171 19.6355C20.7093 19.7162 20.7736 19.4741 20.7703 19.53C20.7681 19.5658 20.7307 19.7431 20.7303 19.8014C20.7305 19.818 20.7834 19.6394 20.7904 19.5865C20.8005 19.5113 20.7697 19.581 20.7821 19.4991C20.8232 19.2275 20.8741 18.9888 20.9128 18.7342C20.9162 18.7112 20.8751 18.8874 20.9053 18.6913C20.9099 18.661 20.9585 18.482 20.9914 18.247C21.0067 17.719 21.1278 17.3483 21.2054 16.6872C21.1956 16.7111 21.1041 17.2003 21.0991 17.2292C21.0044 17.7772 20.8524 18.7616 20.7641 19.3372C20.7414 19.4849 20.766 19.4152 20.7567 19.4789C20.7494 19.5293 20.7335 19.4656 20.7171 19.6355ZM10.9456 2.91778C10.951 2.9552 10.9791 3.02463 11.0128 3.10669C11.0577 3.21552 11.1111 3.34739 11.1433 3.44998C11.1445 3.40173 11.0885 3.24655 11.0258 3.10131C10.9975 3.03514 10.9683 2.9708 10.9456 2.91778ZM21.6906 13.5802C21.6796 13.6579 21.6352 13.8974 21.6398 13.9184C21.6457 13.9455 21.7051 13.5992 21.6906 13.5802ZM0.714712 19.3961C0.715403 19.4037 0.714046 19.5926 0.713247 19.5998C0.692891 19.7685 0.697062 19.202 0.714712 19.3961ZM0.709829 23.9142C0.71296 24.0574 0.720885 24.2019 0.700307 24.25C0.703458 24.1588 0.695495 23.8974 0.709829 23.9142ZM4.64029 27.782C4.61072 27.7551 5.0418 27.7725 5.12322 27.7749C5.09306 27.7869 4.66197 27.8014 4.64029 27.782ZM20.6937 10.2647C20.4421 10.0365 20.4684 10.119 20.3078 9.97696C20.2797 9.95691 20.24 9.81172 20.521 10.067C20.5676 10.116 20.3597 9.95662 20.6937 10.2647ZM19.9114 25.1409C19.9123 25.0962 19.928 25.007 19.9426 24.9056C19.9535 24.8295 19.9683 24.7436 19.9797 24.6742C19.9846 24.6942 19.97 24.8031 19.9544 24.9087C19.9411 24.9998 19.9225 25.0895 19.9114 25.1409ZM11.3565 4.81533C11.3535 4.83516 11.3513 4.86446 11.3494 4.89997C11.337 5.09267 11.353 5.5052 11.3674 5.38274C11.3692 5.36611 11.3604 5.05292 11.3579 4.89997C11.3573 4.86174 11.3566 4.83189 11.3565 4.81533ZM0.812174 12.2983C0.734947 12.5211 0.938033 12.0788 0.982668 11.9305C0.955605 11.9946 0.81741 12.2833 0.812174 12.2983ZM3.14306 27.7674C3.15434 27.7666 3.40349 27.7685 3.41463 27.7695C3.61882 27.7902 2.91384 27.7849 3.14306 27.7674ZM0.742545 22.4285C0.758855 22.5182 0.745695 23.1084 0.729361 23.2407C0.705512 23.1134 0.722173 22.3171 0.742545 22.4285ZM21.4937 11.3983C21.3989 11.1749 21.2904 10.9708 21.169 10.7827C21.2199 10.8062 21.5064 11.3655 21.4937 11.3983ZM4.05772 27.7657C4.07107 27.7658 4.08407 27.7673 4.09683 27.7675C4.08351 27.7669 4.07046 27.7663 4.05772 27.7657ZM21.2874 15.9521C21.2582 16.1071 21.288 16.0786 21.2902 16.0691C21.3162 15.9531 21.3204 15.7767 21.2874 15.9521ZM10.9979 3.13077C11.0036 3.19878 11.1295 3.48928 11.1696 3.66755C11.1761 3.6111 11.0597 3.26415 10.9979 3.13077ZM16.5017 27.7659C16.4349 27.7576 16.4824 27.7488 16.5813 27.7415C16.8238 27.7404 17.3174 27.6542 17.4572 27.6191C17.4773 27.6387 16.8362 27.7827 16.5726 27.7651C16.5366 27.7662 16.507 27.7665 16.5017 27.7659ZM1.13937 11.6452C1.16205 11.638 1.27963 11.3202 1.2428 11.3824C1.21945 11.4218 1.12543 11.6494 1.13937 11.6452ZM17.9507 27.4579C18.0382 27.4161 18.2467 27.3251 18.1811 27.3719C18.0963 27.4337 17.928 27.4699 17.9507 27.4579ZM20.5265 20.7753C20.5188 20.8076 20.4694 21.2502 20.5152 21.0712C20.547 20.9471 20.5246 20.9231 20.5291 20.8934C20.5343 20.8603 20.6735 20.159 20.5265 20.7753ZM11.9908 27.7504C12.1587 27.7436 12.3617 27.7515 12.5374 27.751C12.4658 27.762 12.0622 27.765 11.9908 27.7504ZM0.746573 13.1834C0.750006 13.164 0.752787 12.9011 0.752353 12.6999C0.753992 12.6332 0.787481 12.4598 0.816033 12.3995C0.905089 12.1977 0.96051 12.0622 0.816036 12.3591C0.814063 12.3632 0.808478 12.375 0.800332 12.3926C0.771118 12.4542 0.736852 12.6317 0.735174 12.6999C0.732743 12.8379 0.727456 13.2921 0.746573 13.1834ZM20.6937 10.2647C20.7247 10.2941 20.7595 10.3292 20.7981 10.3715C20.759 10.3302 20.7244 10.2949 20.6937 10.2647ZM21.6309 13.6784C21.6273 13.6165 21.5776 13.9181 21.5708 14.0083C21.5822 14.0382 21.6315 13.6869 21.6309 13.6784ZM12.5507 27.733C12.6519 27.7255 12.8357 27.7335 12.961 27.7326C12.9398 27.7446 12.5945 27.7452 12.5507 27.733ZM5.44166 27.7194C5.64269 27.7266 5.89006 27.7233 5.89387 27.7085C5.89805 27.7108 5.9078 27.7133 5.92398 27.7157C5.94033 27.7182 6.15568 27.7113 6.24925 27.7164C6.80941 27.7462 4.08611 27.7339 5.66451 27.6923C5.59023 27.7013 5.51594 27.7104 5.44166 27.7194ZM0.777214 21.6299C0.795143 21.5158 0.772677 21.1962 0.765617 21.2792C0.76078 21.3369 0.759163 21.7441 0.777214 21.6299ZM0.787835 26.0204C0.791035 25.9863 0.778478 25.6743 0.769035 25.6663C0.759085 25.8456 0.772969 26.1758 0.787835 26.0204ZM0.798211 20.7528C0.800916 20.6812 0.772005 20.5898 0.770744 20.5982C0.76019 20.671 0.782114 20.8731 0.798211 20.7528ZM21.0866 10.8407C21.1624 10.951 21.383 11.3165 21.4314 11.3993C21.4348 11.4168 21.4494 11.4618 21.4743 11.5442C21.4742 11.544 21.4741 11.5437 21.474 11.5435C21.4789 11.5605 21.5125 11.6498 21.5507 11.7852C21.6612 12.1261 21.7159 12.7822 21.6411 13.1916C21.5929 13.5189 21.5769 13.6596 21.6599 13.1955C21.6789 13.0844 21.6971 12.9461 21.7038 12.7762C21.7043 12.703 21.6945 12.8024 21.6861 12.5057C21.685 12.4861 21.6988 12.4754 21.6944 12.4147C21.6899 12.3308 21.656 12.0276 21.5802 11.7766C21.5324 11.6097 21.4728 11.4663 21.4453 11.4131C21.4472 11.4109 21.4457 11.401 21.4396 11.3811C21.3965 11.1942 21.0364 10.7458 21.0866 10.8407ZM0.790398 26.639C0.795583 26.5762 0.790659 26.3774 0.778313 26.3568C0.772261 26.4554 0.778303 26.7847 0.790398 26.639ZM0.797234 13.149C0.80739 13.0211 0.788405 12.6969 0.778313 12.7949C0.772105 12.8549 0.785575 13.2965 0.797234 13.149ZM0.783806 24.6482C0.769211 25.3818 0.784986 24.8233 0.803094 24.9357C0.796665 24.8399 0.790235 24.744 0.783806 24.6482ZM17.5155 9.38617C17.6325 9.39034 17.495 9.42607 17.3662 9.40668C17.3258 9.40053 17.4501 9.38391 17.5155 9.38617ZM12.2339 9.39728C12.3338 9.42897 11.8462 9.41035 12.0362 9.38862C12.045 9.38788 12.2268 9.39608 12.2339 9.39728ZM15.9245 9.41022C16.0039 9.38865 16.0556 9.38609 16.2793 9.39142C15.9482 9.3975 16.2553 9.41658 15.9245 9.41022ZM5.8917 27.7062C5.89299 27.7071 5.89408 27.7077 5.89387 27.7085C5.89243 27.7077 5.89181 27.707 5.8917 27.7062ZM0.792596 20.0631C0.810869 19.9713 0.809524 19.714 0.791131 19.7906C0.789427 19.798 0.779093 20.0255 0.792596 20.0631ZM21.4314 11.3993C21.4283 11.3838 21.4334 11.3901 21.4453 11.4131C21.4435 11.4151 21.4388 11.4099 21.4314 11.3993ZM0.807489 21.4449C0.793855 21.4357 0.788553 21.8274 0.790154 21.8431C0.813798 22.0679 0.808309 21.6066 0.807489 21.4449ZM1.74314 10.469C1.75004 10.4499 1.66501 10.5547 1.6452 10.6333C1.62989 10.6942 1.71739 10.5403 1.74314 10.469ZM15.1651 9.41901C15.041 9.41899 14.8664 9.419 14.8342 9.40229C14.9173 9.40485 15.1676 9.40675 15.1651 9.41901ZM12.4248 9.42023C12.5714 9.40058 12.9062 9.40064 13.12 9.40388C13.124 9.42974 12.5624 9.41415 12.4248 9.42023ZM20.8316 10.503C20.8334 10.5054 20.8495 10.5241 20.8721 10.5509C20.9457 10.6352 21.0732 10.8111 21.0595 10.7708C21.0453 10.725 20.9523 10.6074 20.8845 10.5401C20.8359 10.4911 20.8032 10.4661 20.8316 10.503ZM1.481 11.0134C1.43547 11.1454 1.59884 10.8677 1.63251 10.7221C1.64984 10.6473 1.48869 10.9912 1.481 11.0134ZM0.816522 19.2596C0.806501 19.076 0.788651 19.5309 0.806756 19.5945C0.808209 19.5099 0.82007 19.3248 0.816522 19.2596ZM0.834833 25.5046C0.887054 24.9262 0.791789 25.2412 0.800164 25.3438C0.80136 25.3583 0.833605 25.5187 0.834833 25.5046ZM11.2529 6.2645C11.2601 6.34638 11.2864 6.04112 11.2691 6.00162C11.2583 5.97721 11.2482 6.21214 11.2529 6.2645ZM8.70677 27.6916C8.68235 27.6917 8.65812 27.6919 8.63414 27.6921C8.65212 27.6912 8.67578 27.6909 8.70677 27.6916ZM0.886471 17.5935C0.812741 18.0007 0.869568 17.9579 0.869259 17.9933C0.868465 18.0697 0.848529 18.2474 0.851802 18.3915C0.843501 18.2265 0.8352 18.0614 0.826899 17.8964C0.821576 18.0268 0.794435 19.1592 0.80639 19.1829C0.823415 19.2169 0.818074 18.8606 0.819574 18.8502C0.821711 18.8353 0.869046 18.7796 0.870845 18.7465C0.873722 18.6922 0.874704 17.7453 0.886471 17.5935ZM0.826654 24.295C0.821027 24.388 0.802273 24.4145 0.806756 24.4577C0.80829 24.4724 0.826178 24.4748 0.830805 24.525C0.829421 24.4484 0.828038 24.3717 0.826654 24.295ZM0.820184 16.8645C0.842043 16.7492 0.833742 17.266 0.831293 17.2825C0.816477 17.3709 0.802328 16.9586 0.820184 16.8645ZM0.823358 21.2494C0.824634 21.2305 0.831459 20.8337 0.81933 20.8369C0.810084 20.9419 0.80739 21.4724 0.823358 21.2494ZM0.832026 24.5871C0.829939 24.7265 0.811926 24.9901 0.838862 24.9599C0.838862 24.9597 0.838862 24.9594 0.838862 24.9592C0.836583 24.8352 0.834304 24.7111 0.832026 24.5871ZM1.33981 11.4717C1.48386 11.2529 1.38465 11.3428 1.27918 11.5463C1.26866 11.6174 1.31625 11.5076 1.33981 11.4717ZM1.70453 10.729C1.74075 10.6664 2.03357 9.98595 1.96696 10.08C1.94327 10.1135 1.78909 10.5111 1.7797 10.5283C1.7655 10.5546 1.79768 10.4202 1.71005 10.6299C1.72322 10.6212 1.69219 10.7504 1.70453 10.729ZM1.45169 11.2874C1.58568 11.066 1.55409 10.9888 1.4756 11.1652C1.44489 11.2341 1.43252 11.3189 1.45169 11.2874ZM1.02147 12.2438C1.06418 12.1617 1.17163 11.9402 1.22216 11.777C1.1285 11.9838 1.03484 12.1906 0.941173 12.3973C0.940917 12.4258 0.984095 12.3157 1.02172 12.2433C1.02164 12.2435 1.02156 12.2436 1.02147 12.2438ZM10.8819 9.57441C11.0859 9.59148 10.616 9.59802 10.5961 9.59382C10.5371 9.57991 10.7907 9.56679 10.8819 9.57441ZM10.7062 7.85795C10.6994 7.91463 10.677 7.95168 10.6887 8.07645C10.7053 7.95095 10.7218 7.82546 10.7383 7.69997C10.7005 7.60244 10.7137 7.79599 10.7062 7.85795ZM10.5679 8.33716C10.567 8.31943 10.5088 8.41627 10.5476 8.18725C10.5739 8.03251 10.5994 8.87398 10.5736 9.02587C10.5616 8.85804 10.5754 8.48976 10.5679 8.33716ZM10.3159 9.81111C10.3113 9.82081 10.3045 9.50112 10.3078 9.46412C10.325 9.26982 10.3408 9.75862 10.3159 9.81111ZM10.327 8.79123C10.3157 8.94116 10.3085 8.60902 10.315 8.51004C10.3258 8.50043 10.3287 8.76807 10.327 8.79123ZM12.9478 10.4175C13.11 10.457 13.2551 10.3719 13.0055 10.389C12.9936 10.3898 12.9409 10.4155 12.9478 10.4175ZM10.2572 9.49857C10.2685 9.34864 10.2758 9.68078 10.2693 9.77976C10.2585 9.78897 10.2556 9.5214 10.2572 9.49857ZM13.062 10.5117C13.2775 10.5402 13.2016 10.4446 13.1747 10.4408C13.0637 10.4256 12.6834 10.4631 12.6057 10.4724C13.175 10.4581 12.9605 10.4983 13.062 10.5117ZM14.0558 10.4543C14.2557 10.4441 13.7448 10.4246 13.6474 10.4513C13.7467 10.45 13.9989 10.4573 14.0558 10.4543ZM15.269 10.485C15.3765 10.4884 15.6962 10.4966 15.7498 10.4816C15.6325 10.4843 15.3144 10.4695 15.269 10.485ZM15.5124 10.53C15.6804 10.5504 15.7207 10.4909 15.527 10.5087C15.5194 10.5093 15.5062 10.5289 15.5124 10.53ZM16.4568 10.5515C16.5671 10.5752 16.6929 10.5175 16.5142 10.516C16.4612 10.5156 16.4452 10.5488 16.4568 10.5515ZM13.3317 10.6145C13.4895 10.6247 13.6929 10.5834 13.3559 10.5788C13.4743 10.5725 13.5926 10.5662 13.711 10.5599C13.2696 10.5368 13.302 10.594 13.1753 10.5917C12.9982 10.5883 13.0122 10.5411 13.0477 10.5262C12.9025 10.5552 12.2856 10.5556 11.9291 10.5611C12.2425 10.5733 12.7509 10.5943 13.0601 10.602C13.1484 10.6043 13.2341 10.5913 13.3094 10.5928C13.43 10.5952 13.3229 10.6138 13.3311 10.6145C13.3313 10.6145 13.3315 10.6145 13.3317 10.6145ZM17.6983 10.5524C18.0223 10.5792 17.8174 10.5213 17.6344 10.5316C17.6265 10.5324 17.6903 10.5517 17.6983 10.5524ZM10.0813 9.92812C10.1055 9.49532 10.1376 9.80991 10.0889 8.90452C10.1233 9.28489 10.1137 8.92555 10.1276 8.9998C10.1386 9.05936 10.1295 9.28254 10.1516 9.15281C10.1275 9.32333 10.1342 10.0636 10.1303 10.0967C10.1303 10.0963 10.1303 10.096 10.1303 10.0957C10.1279 10.1155 10.0736 10.0662 10.0813 9.92812ZM15.2706 10.6363C15.3786 10.7066 15.421 10.5951 15.6334 10.6533C15.9162 10.5688 14.8522 10.6533 14.7234 10.5819C15.8789 10.5902 13.96 10.5111 14.7665 10.618C14.1021 10.5792 14.5488 10.6313 14.4462 10.6449C14.3365 10.6594 13.9607 10.6436 13.9798 10.6698C13.98 10.6698 13.9802 10.6698 13.9804 10.6698C14.2103 10.668 14.4401 10.6661 14.67 10.6643C14.445 10.6079 14.9148 10.6248 15.0741 10.6708C15.1396 10.6593 15.2051 10.6478 15.2706 10.6363ZM13.9695 10.5834C13.9922 10.5847 14.4922 10.5767 14.4599 10.5654C14.3931 10.5582 13.6835 10.5669 13.9695 10.5834ZM11.769 10.5957C11.9485 10.5958 12.2261 10.6068 12.3239 10.5856C12.1444 10.5854 11.8667 10.5744 11.769 10.5957ZM20.1729 11.5736C20.2932 11.7176 19.9673 11.2456 20.0473 11.3934C20.0535 11.399 20.1693 11.5651 20.1729 11.5736ZM15.7911 10.6257C16.0237 10.6472 15.9138 10.5789 15.7414 10.5967C15.7315 10.5977 15.7803 10.6247 15.7911 10.6257ZM10.073 9.5774C10.0563 9.56184 10.068 8.93389 10.0679 8.82258C10.0834 8.88582 10.0922 9.59526 10.073 9.5774ZM11.453 10.6583C11.8102 10.7185 12.295 10.649 12.3481 10.6505C12.401 10.6521 12.3181 10.6784 12.3301 10.6791C12.3576 10.6805 12.9205 10.6783 12.9478 10.6765C12.9673 10.6751 12.8654 10.6381 12.9816 10.6265C12.755 10.6475 11.7258 10.6343 11.6725 10.6384C11.6311 10.6417 11.9429 10.6805 11.4536 10.6583C11.4534 10.6583 11.4532 10.6583 11.453 10.6583ZM12.481 10.6586C12.3403 10.6431 12.7347 10.6411 12.8301 10.6468C13.0422 10.6596 12.499 10.6604 12.481 10.6586ZM13.4295 10.6728C13.4745 10.6763 13.8809 10.6795 13.9155 10.6622C13.7231 10.6398 13.3273 10.6647 13.4295 10.6728ZM17.9522 10.6705C18.0578 10.6683 18.348 10.6816 18.3647 10.6665C18.259 10.6687 17.9688 10.6554 17.9522 10.6705ZM9.94141 7.43491C9.92879 7.61028 9.92364 7.20397 9.92969 7.08543C9.93974 7.079 9.94249 7.41998 9.94141 7.43491ZM15.8305 10.7699C15.893 10.7745 17.1681 10.763 17.347 10.756C17.172 10.7446 15.9083 10.7437 15.851 10.7493C15.8342 10.7509 15.8225 10.7692 15.8305 10.7699ZM13.0729 10.7769C12.9559 10.7991 12.8797 10.7724 12.8649 10.7721C12.7203 10.7687 12.4205 10.7737 12.4863 10.7523C12.7414 10.7609 13.3056 10.7328 13.0729 10.7769ZM18.0428 10.771C18.4758 10.7628 17.6442 10.7394 17.7533 10.7626C17.7603 10.764 17.9981 10.7719 18.0428 10.771ZM15.688 10.7764C15.5925 10.7943 14.317 10.7788 14.1123 10.7788C14.2957 10.7457 14.4435 10.7708 14.6899 10.7692C14.7564 10.7687 14.7386 10.7549 14.7458 10.7549C14.8609 10.7542 14.7747 10.7701 14.8457 10.7704C14.8905 10.7705 15.8224 10.7511 15.688 10.7764ZM13.0061 10.7922C12.9348 10.805 12.1384 10.8104 12.1064 10.807C11.8667 10.7818 12.9442 10.7878 13.0061 10.7922ZM15.8051 10.8058C15.6679 10.8442 15.0345 10.8185 15.468 10.7993C15.5094 10.7976 15.6847 10.8142 15.8051 10.8058ZM17.9966 10.8076C18.0115 10.8084 18.2363 10.8124 18.3732 10.8106C18.4241 10.8092 18.4552 10.8085 18.4571 10.8048C18.4472 10.8036 18.4187 10.8018 18.3812 10.8014C18.1774 10.7984 17.8046 10.7978 17.9966 10.8076ZM17.7626 10.849C17.7734 10.8487 17.6676 10.8251 17.8793 10.8281C17.8969 10.8284 17.9298 10.8549 18.1958 10.8452C18.2498 10.8432 18.3335 10.8257 18.3274 10.8246C18.0504 10.783 17.216 10.8627 17.7626 10.849ZM12.9915 10.8137C13.0345 10.8249 12.9309 10.8581 12.8376 10.8413C12.7976 10.834 12.8722 10.8141 12.9915 10.8137ZM19.1249 10.9628C19.0548 10.9431 19.0926 10.9623 19.1649 10.9979C19.284 11.0526 19.4781 11.1807 19.4936 11.1912C19.4896 11.1715 19.2763 11.0258 19.1716 10.983C19.1461 10.9712 19.1286 10.9639 19.1249 10.9628ZM9.78588 7.02429C9.78588 7.02449 9.78588 7.0247 9.78588 7.02491C9.79045 6.80417 9.80721 6.9409 9.80773 6.93056C9.83235 6.46037 9.79439 6.58508 9.78991 6.51155C9.78022 6.3539 9.82638 6.3793 9.80725 6.11335C9.83551 6.55295 9.82366 6.1528 9.84008 6.14035C9.90711 6.09108 9.8087 6.72565 9.82275 6.94483C9.82469 6.97537 9.84608 6.74989 9.85217 6.82813C9.87189 7.08253 9.76842 7.87132 9.78588 7.02429ZM12.7656 10.8442C12.6632 10.8639 11.8864 10.8448 12.0924 10.8286C12.1255 10.826 12.9161 10.8155 12.7656 10.8442ZM5.96216 26.2264C6.14884 26.2094 5.71618 26.1894 5.63596 26.2026C5.59616 26.2092 5.88015 26.2339 5.96216 26.2264ZM2.92859 26.1535C2.70676 26.157 2.47291 26.2281 2.74889 26.217C2.77821 26.2158 2.95402 26.1634 2.92859 26.1535ZM17.2072 26.0875C17.0489 26.1131 17.0697 26.154 17.1828 26.1183C17.2224 26.1046 17.2122 26.0865 17.2072 26.0875ZM8.65431 26.1962C8.63112 26.1945 8.36335 26.1975 8.37312 26.2084C8.4721 26.2149 8.80424 26.2075 8.65431 26.1962ZM17.2523 26.0637C17.1658 26.1046 17.3348 26.0819 17.4234 25.9973C17.3726 26.0276 17.261 26.0601 17.2523 26.0637ZM16.2836 10.91C16.3986 10.8907 16.724 10.8965 16.9109 10.8932C16.9311 10.9183 16.4172 10.9055 16.2836 10.91ZM3.87025 26.1821C3.66025 26.1998 4.11016 26.2143 4.06889 26.1909C4.06316 26.1896 3.87853 26.1814 3.87025 26.1821ZM19.0753 20.0525C19.067 20.2057 19.1602 19.7296 19.114 19.8575C19.112 19.8639 19.0757 20.0441 19.0753 20.0525ZM19.4042 17.9618C19.3817 18.0755 19.3085 18.5639 19.352 18.3761C19.3588 18.347 19.4165 17.9725 19.4042 17.9618ZM9.77184 6.49852C9.74606 6.56092 9.7522 6.19872 9.75671 6.14687C9.75858 6.1265 9.80538 6.41713 9.77184 6.49852ZM15.9906 26.186C15.8707 26.1892 15.5599 26.1831 15.5051 26.1966C15.6518 26.1938 16.03 26.213 15.9906 26.186ZM4.82775 26.182C4.64488 26.154 4.33243 26.1567 4.40968 26.1933C4.75481 26.1909 4.36702 26.1604 4.82775 26.182ZM17.6917 25.779C17.6398 25.8171 17.6183 25.8738 17.6252 25.8711C17.6943 25.8433 17.7508 25.7489 17.6917 25.779ZM11.1283 26.1821C11.1227 26.1671 10.8147 26.1739 10.8558 26.1836C10.8693 26.1868 11.1328 26.1943 11.1283 26.1821ZM19.5982 11.3811C19.6606 11.4545 19.4341 11.2706 19.3662 11.2158C19.3459 11.169 19.595 11.3665 19.5982 11.3811ZM18.4568 23.9665C18.4369 23.949 18.3765 24.4269 18.4235 24.2421C18.4352 24.1959 18.4634 23.9726 18.4568 23.9665ZM19.1283 19.4057C19.1057 19.729 19.3296 18.3911 19.2429 18.7384C19.2368 18.7632 19.1303 19.3775 19.1283 19.4057ZM19.48 17.2186C19.4687 17.2732 19.3989 17.2344 19.4623 17.0108C19.4706 16.9815 19.4688 17.1245 19.477 17.1007C19.4817 17.0867 19.568 16.5926 19.5698 16.5695C19.5716 16.5447 19.5435 16.5699 19.5446 16.5446C19.5459 16.5161 19.6135 16.2141 19.6382 16.0544C19.6847 15.7533 19.67 15.7177 19.6737 15.6931C19.6846 15.6211 19.7171 15.5023 19.7394 15.3565C19.8491 14.6392 19.9998 13.5489 20.1289 12.961C20.1311 12.9525 20.1335 12.943 20.1358 12.9336C20.134 12.9433 20.1322 12.9529 20.1303 12.9626C20.039 13.4619 19.9823 13.9455 19.9108 14.448C19.8927 14.2905 19.8263 15.212 19.8603 14.6723C19.833 14.919 19.5167 17.0394 19.4801 17.218C19.4801 17.2182 19.4801 17.2184 19.48 17.2186ZM2.05303 26.1326C2.1695 26.1107 1.67576 26.1117 1.49268 26.1309L2.36152 26.9998C2.35825 26.9686 2.35445 26.9465 2.35015 26.9379C2.34957 26.9509 2.34929 26.9724 2.34925 26.9998L1.49268 26.1432C1.65843 26.1435 2.03854 26.135 2.05303 26.1326ZM5.27903 26.0702C5.34397 26.0658 5.4056 26.0158 5.74614 26.0411C5.74645 26.0411 5.74676 26.0411 5.74707 26.0411C5.84663 26.0485 5.73318 26.0607 5.75141 26.065C5.75806 26.0668 6.06859 26.0917 5.81069 26.0957C5.41739 26.1018 5.77366 26.0585 5.56395 26.058C5.53832 26.0579 5.14142 26.085 5.1645 26.0909C5.16689 26.0916 5.28631 26.0859 5.30603 26.0884C5.38052 26.0976 5.34426 26.1133 5.35476 26.114C5.38912 26.1159 6.01676 26.0893 6.10803 26.1125C6.13769 26.12 5.1075 26.1373 5.06736 26.1334C5.04197 26.131 5.05267 26.0876 5.02639 26.0834C5.01285 26.0812 4.59848 26.0975 4.54469 26.0935C4.52907 26.0923 4.51714 26.0911 4.50838 26.0901C4.57108 26.1035 4.19581 26.1025 4.20732 26.0874C4.21384 26.0814 4.47213 26.0849 4.48138 26.0859C4.48543 26.0864 4.48895 26.087 4.49224 26.0874C4.43876 26.071 5.31324 26.0718 5.12446 26.0475C5.37797 26.0341 5.0885 26.0831 5.27903 26.0702ZM6.49755 26.0434C6.47137 26.048 6.4452 26.0526 6.41902 26.0571C6.86281 26.046 7.37491 26.0679 7.88615 26.0677C8.01587 26.0677 7.86663 26.0398 8.03668 26.0475C8.1729 26.0536 8.32365 26.0794 8.24959 26.0852C8.23152 26.0866 7.95419 26.0698 7.81538 26.0715C7.40558 26.0766 7.50911 26.1005 7.48515 26.1012C7.4587 26.1019 7.20078 26.085 7.05994 26.0858C6.70581 26.0877 6.54405 26.1024 6.06023 26.0832C6.33946 26.0675 6.1865 26.0333 6.49755 26.0434ZM18.6979 21.9459C18.6855 21.9269 18.7427 21.6419 18.7565 21.5372C18.7689 21.5559 18.7116 21.8412 18.6979 21.9459ZM5.35294 6.28404C5.36657 6.19249 5.08971 6.80108 5.17998 6.64837C5.19997 6.61459 5.3187 6.36075 5.35294 6.28404ZM4.12056 9.02306C4.09051 9.10758 4.25288 8.78564 4.23515 8.7785C4.22933 8.77649 4.12443 9.01218 4.12056 9.02306ZM12.2341 26.0677C12.2511 26.067 12.4971 26.0725 12.5048 26.0737C12.6678 26.0999 11.858 26.0848 12.2341 26.0677ZM2.66687 12.3725C2.77856 12.0811 2.39144 12.9358 2.52663 12.6821C2.53334 12.6695 2.6615 12.3866 2.66687 12.3725ZM2.43756 13.2285C2.43669 13.1537 2.44472 12.8219 2.43719 12.8175C2.42504 12.8109 2.41673 13.1907 2.43756 13.2285ZM17.6662 25.6797C17.6586 25.6782 17.6633 25.6696 17.6757 25.6561C17.7226 25.6095 17.8617 25.4842 17.9045 25.4208C17.9402 25.4213 17.7714 25.5965 17.6832 25.6649C17.6769 25.6703 17.6712 25.6752 17.6662 25.6797ZM15.6433 26.0394C16.0739 26.0343 16.3819 26.0336 16.5813 26.0353C16.5835 26.0352 16.59 26.0353 16.5922 26.0353C16.8437 26.0306 16.823 26.045 16.592 26.0566C16.5898 26.0566 16.5834 26.0565 16.5813 26.0566C16.352 26.0598 15.993 26.0601 15.5334 26.053C15.5312 26.0351 15.5268 26.0408 15.6433 26.0394ZM17.4492 25.8118C17.4225 25.8497 17.3013 25.9081 17.2167 25.9385C17.2281 25.9231 17.3967 25.8504 17.4492 25.8118ZM5.71088 5.57192C5.68452 5.6868 5.45127 6.14381 5.47974 6.05678C5.48651 6.03659 5.71681 5.52807 5.71088 5.57192ZM12.3887 26.0439C12.3457 26.0169 12.8997 26.0279 12.9421 26.0339C13.1131 26.0581 12.4336 26.038 12.3887 26.0439ZM18.3351 23.9297C18.329 23.8298 18.3818 23.5568 18.4091 23.3802C18.4147 23.4634 18.3584 23.7799 18.3351 23.9297ZM18.1186 24.9841C18.122 24.9779 18.1721 24.8309 18.1732 24.8239C18.2328 24.7072 18.0881 25.1268 18.1186 24.9841ZM9.58238 7.33031C9.5817 7.32201 9.58305 7.13329 9.58385 7.12671C9.60419 6.95826 9.60004 7.52468 9.58238 7.33031Z" fill="black"/>
</svg>
