<svg width="24" height="24" viewBox="0 0 24 24" fill="none" xmlns="http://www.w3.org/2000/svg">
<g clip-path="url(#clip0_248_4703)">
<rect x="6" y="7" width="12" height="11" fill="white"/>
<path d="M8 24C5.77778 24 3.88889 23.2222 2.33333 21.6667C0.777778 20.1111 0 18.2222 0 16V8C0 5.77778 0.777778 3.88889 2.33333 2.33333C3.88889 0.777778 5.77778 0 8 0H12H16C18.2222 0 20.1111 0.777778 21.6667 2.33333C23.2222 3.88889 24 5.77778 24 8V12V16C24 18.2222 23.2222 20.1111 21.6667 21.6667C20.1111 23.2222 18.2222 24 16 24H8ZM10.6667 13.6L8.66667 11.6C8.42222 11.3556 8.11111 11.2333 7.73333 11.2333C7.35556 11.2333 7.04445 11.3556 6.8 11.6C6.55556 11.8444 6.43333 12.1556 6.43333 12.5333C6.43333 12.9111 6.55556 13.2222 6.8 13.4667L9.73333 16.4C10 16.6667 10.3111 16.8 10.6667 16.8C11.0222 16.8 11.3333 16.6667 11.6 16.4L17.7333 10.2667C17.9778 10.0222 18.1 9.71111 18.1 9.33333C18.1 8.95556 17.9778 8.64445 17.7333 8.4C17.4889 8.15556 17.1778 8.03333 16.8 8.03333C16.4222 8.03333 16.1111 8.15556 15.8667 8.4L10.6667 13.6Z" fill="#D0D6E1"/>
</g>
<defs>
<clipPath id="clip0_248_4703">
<rect width="24" height="24" fill="white"/>
</clipPath>
</defs>
</svg>
